<mxfile host="65bd71144e" scale="5" border="10">
    <diagram id="mpP8sGz9FHktHrAXvyJB" name="ページ1">
        <mxGraphModel dx="1320" dy="925" grid="1" gridSize="10" guides="1" tooltips="1" connect="1" arrows="1" fold="1" page="1" pageScale="1" pageWidth="1169" pageHeight="827" background="#ffffff" math="0" shadow="0">
            <root>
                <mxCell id="0"/>
                <mxCell id="1" parent="0"/>
                <mxCell id="6" style="edgeStyle=orthogonalEdgeStyle;rounded=0;html=1;exitX=0.5;exitY=0;exitDx=0;exitDy=0;exitPerimeter=0;entryX=0.005;entryY=0.499;entryDx=0;entryDy=0;entryPerimeter=0;endArrow=none;endFill=0;" edge="1" parent="1" source="2" target="3">
                    <mxGeometry relative="1" as="geometry"/>
                </mxCell>
                <mxCell id="20" style="edgeStyle=orthogonalEdgeStyle;rounded=0;html=1;entryX=-0.011;entryY=0.492;entryDx=0;entryDy=0;entryPerimeter=0;endArrow=none;endFill=0;" edge="1" parent="1" source="2" target="4">
                    <mxGeometry relative="1" as="geometry"/>
                </mxCell>
                <mxCell id="35" style="edgeStyle=orthogonalEdgeStyle;rounded=0;html=1;entryX=-0.01;entryY=0.498;entryDx=0;entryDy=0;entryPerimeter=0;endArrow=none;endFill=0;" edge="1" parent="1" target="30">
                    <mxGeometry relative="1" as="geometry">
                        <mxPoint x="50" y="470" as="sourcePoint"/>
                        <Array as="points">
                            <mxPoint x="50" y="640"/>
                        </Array>
                    </mxGeometry>
                </mxCell>
                <mxCell id="2" value=": User" style="shape=umlActor;verticalLabelPosition=bottom;verticalAlign=top;html=1;outlineConnect=0;" vertex="1" parent="1">
                    <mxGeometry x="40" y="383" width="30" height="60" as="geometry"/>
                </mxCell>
                <mxCell id="16" style="edgeStyle=orthogonalEdgeStyle;rounded=0;html=1;endArrow=none;endFill=0;" edge="1" parent="1" source="3" target="4">
                    <mxGeometry relative="1" as="geometry"/>
                </mxCell>
                <mxCell id="3" value=": メイン画面" style="shape=umlBoundary;whiteSpace=wrap;html=1;" vertex="1" parent="1">
                    <mxGeometry x="368" y="100" width="100" height="80" as="geometry"/>
                </mxCell>
                <mxCell id="25" style="edgeStyle=orthogonalEdgeStyle;rounded=0;html=1;endArrow=none;endFill=0;" edge="1" parent="1" source="4" target="22">
                    <mxGeometry relative="1" as="geometry"/>
                </mxCell>
                <mxCell id="4" value=": 日記を記録する入力画面" style="shape=umlBoundary;whiteSpace=wrap;html=1;" vertex="1" parent="1">
                    <mxGeometry x="368" y="373" width="100" height="80" as="geometry"/>
                </mxCell>
                <mxCell id="18" value="1 : 日記の記録を指示する（）" style="html=1;verticalAlign=bottom;endArrow=block;rounded=0;" edge="1" parent="1">
                    <mxGeometry width="80" relative="1" as="geometry">
                        <mxPoint x="130" y="130" as="sourcePoint"/>
                        <mxPoint x="330" y="130" as="targetPoint"/>
                        <mxPoint as="offset"/>
                    </mxGeometry>
                </mxCell>
                <mxCell id="19" value="2 : 表示する" style="html=1;verticalAlign=bottom;endArrow=block;rounded=0;" edge="1" parent="1">
                    <mxGeometry y="40" width="80" relative="1" as="geometry">
                        <mxPoint x="430" y="220" as="sourcePoint"/>
                        <mxPoint x="430" y="330" as="targetPoint"/>
                        <mxPoint as="offset"/>
                    </mxGeometry>
                </mxCell>
                <mxCell id="21" value="3 : 日記の記録内容を入力する（記録内容）" style="html=1;verticalAlign=bottom;endArrow=block;rounded=0;" edge="1" parent="1">
                    <mxGeometry width="80" relative="1" as="geometry">
                        <mxPoint x="100" y="400" as="sourcePoint"/>
                        <mxPoint x="330" y="400" as="targetPoint"/>
                        <mxPoint as="offset"/>
                    </mxGeometry>
                </mxCell>
                <mxCell id="28" style="edgeStyle=orthogonalEdgeStyle;rounded=0;html=1;entryX=0;entryY=0.5;entryDx=0;entryDy=0;endArrow=none;endFill=0;" edge="1" parent="1" source="22" target="42">
                    <mxGeometry relative="1" as="geometry">
                        <mxPoint x="918.2999999999997" y="139.84000000000003" as="targetPoint"/>
                        <Array as="points">
                            <mxPoint x="785" y="140"/>
                        </Array>
                    </mxGeometry>
                </mxCell>
                <mxCell id="33" style="rounded=0;html=1;entryX=1.01;entryY=0.478;entryDx=0;entryDy=0;entryPerimeter=0;endArrow=none;endFill=0;" edge="1" parent="1" source="22" target="30">
                    <mxGeometry relative="1" as="geometry"/>
                </mxCell>
                <mxCell id="40" style="edgeStyle=orthogonalEdgeStyle;rounded=0;html=1;entryX=0;entryY=0.5;entryDx=0;entryDy=0;endArrow=none;endFill=0;" edge="1" parent="1" source="22" target="44">
                    <mxGeometry relative="1" as="geometry">
                        <mxPoint x="918" y="413.0799999999999" as="targetPoint"/>
                    </mxGeometry>
                </mxCell>
                <mxCell id="46" style="edgeStyle=orthogonalEdgeStyle;rounded=0;html=1;entryX=0;entryY=0.5;entryDx=0;entryDy=0;endArrow=none;endFill=0;" edge="1" parent="1" source="22" target="45">
                    <mxGeometry relative="1" as="geometry">
                        <Array as="points">
                            <mxPoint x="800" y="640"/>
                        </Array>
                    </mxGeometry>
                </mxCell>
                <mxCell id="49" style="edgeStyle=orthogonalEdgeStyle;rounded=0;html=1;endArrow=none;endFill=0;entryX=1.003;entryY=0.51;entryDx=0;entryDy=0;entryPerimeter=0;" edge="1" parent="1" source="22" target="50">
                    <mxGeometry relative="1" as="geometry">
                        <mxPoint x="785" y="680" as="targetPoint"/>
                        <Array as="points">
                            <mxPoint x="785" y="781"/>
                        </Array>
                    </mxGeometry>
                </mxCell>
                <mxCell id="22" value=": 日記&lt;br&gt;記録管理" style="ellipse;shape=umlControl;whiteSpace=wrap;html=1;" vertex="1" parent="1">
                    <mxGeometry x="750" y="373" width="70" height="80" as="geometry"/>
                </mxCell>
                <mxCell id="26" value="4 : 記録内容を確認する（記録内容）" style="html=1;verticalAlign=bottom;endArrow=block;rounded=0;" edge="1" parent="1">
                    <mxGeometry width="80" relative="1" as="geometry">
                        <mxPoint x="490" y="400" as="sourcePoint"/>
                        <mxPoint x="720" y="400" as="targetPoint"/>
                        <mxPoint as="offset"/>
                    </mxGeometry>
                </mxCell>
                <mxCell id="29" value="5 : 制限文字数を確認する（記録内容）" style="html=1;verticalAlign=bottom;endArrow=block;rounded=0;" edge="1" parent="1">
                    <mxGeometry y="10" width="80" relative="1" as="geometry">
                        <mxPoint x="810" y="90" as="sourcePoint"/>
                        <mxPoint x="890" y="90" as="targetPoint"/>
                        <mxPoint as="offset"/>
                    </mxGeometry>
                </mxCell>
                <mxCell id="37" style="edgeStyle=orthogonalEdgeStyle;rounded=0;html=1;entryX=0.284;entryY=0.959;entryDx=0;entryDy=0;entryPerimeter=0;endArrow=none;endFill=0;" edge="1" parent="1" source="30" target="22">
                    <mxGeometry relative="1" as="geometry">
                        <Array as="points">
                            <mxPoint x="770" y="640"/>
                        </Array>
                    </mxGeometry>
                </mxCell>
                <mxCell id="30" value=": 操作の確認を行う画面" style="shape=umlBoundary;whiteSpace=wrap;html=1;" vertex="1" parent="1">
                    <mxGeometry x="368" y="600" width="100" height="80" as="geometry"/>
                </mxCell>
                <mxCell id="34" value="6[文字数制限に問題がない場合] : 日記の記録内容を表示する（記録内容）" style="html=1;verticalAlign=bottom;endArrow=block;rounded=0;" edge="1" parent="1">
                    <mxGeometry x="1" y="-114" width="80" relative="1" as="geometry">
                        <mxPoint x="690" y="470" as="sourcePoint"/>
                        <mxPoint x="490" y="610" as="targetPoint"/>
                        <mxPoint x="-5" y="3" as="offset"/>
                    </mxGeometry>
                </mxCell>
                <mxCell id="36" value="7 : 記録を確定する（記録内容）" style="html=1;verticalAlign=bottom;endArrow=block;rounded=0;" edge="1" parent="1">
                    <mxGeometry width="80" relative="1" as="geometry">
                        <mxPoint x="110" y="630" as="sourcePoint"/>
                        <mxPoint x="340" y="630" as="targetPoint"/>
                        <mxPoint as="offset"/>
                    </mxGeometry>
                </mxCell>
                <mxCell id="38" value="8 : 記録する（記録内容）" style="html=1;verticalAlign=bottom;endArrow=block;rounded=0;" edge="1" parent="1">
                    <mxGeometry width="80" relative="1" as="geometry">
                        <mxPoint x="520" y="630" as="sourcePoint"/>
                        <mxPoint x="750" y="630" as="targetPoint"/>
                        <mxPoint as="offset"/>
                    </mxGeometry>
                </mxCell>
                <mxCell id="41" value="9 : 作成する（記録内容）" style="html=1;verticalAlign=bottom;endArrow=block;rounded=0;" edge="1" parent="1">
                    <mxGeometry x="-0.0123" y="6" width="80" relative="1" as="geometry">
                        <mxPoint x="839.9999999999998" y="406" as="sourcePoint"/>
                        <mxPoint x="921" y="406" as="targetPoint"/>
                        <mxPoint as="offset"/>
                    </mxGeometry>
                </mxCell>
                <mxCell id="42" value=": タイムライン" style="ellipse;shape=umlEntity;whiteSpace=wrap;html=1;" vertex="1" parent="1">
                    <mxGeometry x="939" y="100" width="80" height="80" as="geometry"/>
                </mxCell>
                <mxCell id="44" value=": Diary" style="ellipse;shape=umlEntity;whiteSpace=wrap;html=1;" vertex="1" parent="1">
                    <mxGeometry x="939" y="373" width="80" height="80" as="geometry"/>
                </mxCell>
                <mxCell id="45" value=": User" style="ellipse;shape=umlEntity;whiteSpace=wrap;html=1;" vertex="1" parent="1">
                    <mxGeometry x="939" y="600" width="80" height="80" as="geometry"/>
                </mxCell>
                <mxCell id="47" value="10 : 記録を設定する（Diary）" style="html=1;verticalAlign=bottom;endArrow=block;rounded=0;" edge="1" parent="1">
                    <mxGeometry x="0.2346" y="30" width="80" relative="1" as="geometry">
                        <mxPoint x="839.9999999999998" y="630" as="sourcePoint"/>
                        <mxPoint x="921" y="630" as="targetPoint"/>
                        <mxPoint as="offset"/>
                    </mxGeometry>
                </mxCell>
                <mxCell id="48" value="11 : 記録を設定する（Diary）" style="html=1;verticalAlign=bottom;endArrow=block;rounded=0;" edge="1" parent="1">
                    <mxGeometry y="10" width="80" relative="1" as="geometry">
                        <mxPoint x="810" y="130" as="sourcePoint"/>
                        <mxPoint x="890" y="130" as="targetPoint"/>
                        <mxPoint as="offset"/>
                    </mxGeometry>
                </mxCell>
                <mxCell id="50" value=": 過去の日記を表示する画面" style="shape=umlBoundary;whiteSpace=wrap;html=1;" vertex="1" parent="1">
                    <mxGeometry x="368" y="740" width="100" height="80" as="geometry"/>
                </mxCell>
                <mxCell id="51" value="12 : ..." style="html=1;verticalAlign=bottom;endArrow=block;rounded=0;" edge="1" parent="1">
                    <mxGeometry x="-0.0012" width="80" relative="1" as="geometry">
                        <mxPoint x="720" y="770" as="sourcePoint"/>
                        <mxPoint x="570" y="770" as="targetPoint"/>
                        <mxPoint as="offset"/>
                    </mxGeometry>
                </mxCell>
            </root>
        </mxGraphModel>
    </diagram>
</mxfile>